# Blender 4.5.2 LTS
# www.blender.org
mtllib walls.mtl
o Cube
v 3.000000 2.000000 -2.500000
v -0.000000 2.000000 2.400000
v 2.880000 2.000000 -2.400000
v 0.000000 0.000000 2.400000
v -0.000000 2.000000 -2.400000
v 3.000000 0.000000 -2.500000
v 0.000000 0.000000 -2.400000
v 2.880000 0.000000 -2.400000
v 2.880000 2.000000 2.400000
v 0.100000 2.000000 2.400000
v 3.000000 2.000000 2.500000
v 0.100000 0.000000 2.400000
v 0.100000 2.000000 -2.400000
v 3.000000 0.000000 2.500000
v 2.880000 0.000000 2.400000
v 0.100000 0.000000 -2.400000
v 0.000000 0.000000 1.980000
v -3.000000 2.000000 -2.500000
v -2.880000 2.000000 -2.400000
v -0.000000 1.040960 1.980000
v -3.000000 0.000000 -2.500000
v -0.000000 1.249360 1.929968
v -2.880000 0.000000 -2.400000
v -0.000000 1.182811 1.957533
v -3.000000 2.000000 2.500000
v -0.000000 1.112770 1.974349
v -2.880000 2.000000 2.400000
v -0.000000 1.412331 1.790777
v -0.000000 1.365550 1.845550
v -3.000000 0.000000 2.500000
v -2.880000 0.000000 2.400000
v -0.000000 1.494349 1.592770
v -0.000000 1.477533 1.662811
v -0.000000 1.449968 1.729360
v -0.000000 1.310777 1.892331
v -0.000000 1.494349 1.407230
v -0.000000 1.500000 1.479040
v -0.000000 1.412331 1.209223
v -0.000000 1.449968 1.270640
v -0.000000 1.477533 1.337189
v -0.000000 1.310777 1.107669
v -0.000000 1.249360 1.070032
v -0.000000 1.112770 1.025651
v 0.000000 0.000000 1.020000
v -0.000000 1.040960 1.020000
v -0.000000 1.182811 1.042467
v -0.000000 1.365550 1.154450
v -0.000000 1.500000 1.520960
v 0.100000 0.000000 1.980000
v 0.100000 1.040960 1.980000
v 0.100000 1.249360 1.929968
v 0.100000 1.182811 1.957533
v 0.100000 1.112770 1.974349
v 0.100000 1.412331 1.790777
v 0.100000 1.365550 1.845550
v 0.100000 1.494349 1.592770
v 0.100000 1.477533 1.662811
v 0.100000 1.449968 1.729360
v 0.100000 1.310777 1.892331
v 0.100000 1.500000 1.520960
v 0.100000 1.500000 1.479040
v 0.100000 1.494349 1.407230
v 0.100000 1.412331 1.209223
v 0.100000 1.449968 1.270640
v 0.100000 1.477533 1.337189
v 0.100000 1.310777 1.107669
v 0.100000 1.249360 1.070032
v 0.100000 1.112770 1.025651
v 0.100000 0.000000 1.020000
v 0.100000 1.040960 1.020000
v 0.100000 1.182811 1.042467
v 0.100000 1.365550 1.154450
vn -0.0000 1.0000 -0.0000
vn -0.0000 -0.0000 1.0000
vn -1.0000 -0.0000 -0.0000
vn -0.0000 -1.0000 -0.0000
vn 1.0000 -0.0000 -0.0000
vn -0.0000 -0.0000 -1.0000
vn -0.0000 -0.0785 -0.9969
vn -0.0000 -0.2334 -0.9724
vn -0.0000 -0.3827 -0.9239
vn -0.0000 -0.5225 -0.8526
vn -0.0000 -0.6494 -0.7604
vn -0.0000 -0.7604 -0.6494
vn -0.0000 -0.8526 -0.5225
vn -0.0000 -0.9239 -0.3827
vn -0.0000 -0.9724 -0.2334
vn -0.0000 -0.9969 -0.0785
vn -0.0000 -0.0785 0.9969
vn -0.0000 -0.2334 0.9724
vn -0.0000 -0.3827 0.9239
vn -0.0000 -0.5225 0.8526
vn -0.0000 -0.6494 0.7604
vn -0.0000 -0.7604 0.6494
vn -0.0000 -0.8526 0.5225
vn -0.0000 -0.9239 0.3827
vn -0.0000 -0.9724 0.2334
vn -0.0000 -0.9969 0.0785
vt 0.634365 0.007988
vt 0.327245 0.007989
vt 0.320847 0.000311
vt 0.640763 0.000310
vt 0.640763 0.384210
vt 0.320847 0.384210
vt 0.327245 0.376532
vt 0.634365 0.376532
vt 0.647782 0.376532
vt 0.641384 0.384210
vt 0.641384 0.000310
vt 0.647782 0.007988
vt 0.000310 0.384830
vt 0.128277 0.384830
vt 0.128277 0.768730
vt 0.000310 0.768730
vt 0.771212 0.704746
vt 0.643245 0.704746
vt 0.643245 0.384830
vt 0.771212 0.384830
vt 0.006709 0.376532
vt 0.313828 0.376532
vt 0.320227 0.384210
vt 0.000310 0.384210
vt 0.000310 0.000310
vt 0.320226 0.000310
vt 0.313828 0.007988
vt 0.006709 0.007988
vt 0.642625 0.704746
vt 0.514658 0.704746
vt 0.514658 0.384830
vt 0.642625 0.384830
vt 0.256864 0.768730
vt 0.128897 0.768730
vt 0.128897 0.384830
vt 0.256864 0.384830
vt 0.385451 0.384830
vt 0.385451 0.753374
vt 0.257484 0.753374
vt 0.257484 0.384830
vt 0.655422 0.000310
vt 0.783388 0.000310
vt 0.783388 0.307430
vt 0.655422 0.307430
vt 0.771832 0.691950
vt 0.771832 0.384830
vt 0.899799 0.384830
vt 0.899799 0.691950
vt 0.386071 0.753374
vt 0.386071 0.384830
vt 0.514038 0.384830
vt 0.514038 0.753374
vt 0.911976 0.000310
vt 0.911975 0.307430
vt 0.784009 0.307430
vt 0.784009 0.088607
vt 0.850613 0.088607
vt 0.855208 0.088246
vt 0.859689 0.087170
vt 0.863947 0.085406
vt 0.867877 0.082998
vt 0.871381 0.080005
vt 0.874375 0.076500
vt 0.876783 0.072570
vt 0.878546 0.068312
vt 0.879622 0.063831
vt 0.879984 0.059236
vt 0.879984 0.056554
vt 0.879622 0.051960
vt 0.878546 0.047478
vt 0.876783 0.043220
vt 0.874375 0.039290
vt 0.871381 0.035786
vt 0.867877 0.032793
vt 0.863947 0.030385
vt 0.859689 0.028621
vt 0.855208 0.027545
vt 0.850613 0.027183
vt 0.784009 0.027183
vt 0.784009 0.000310
vt 0.833195 0.780867
vt 0.899799 0.780867
vt 0.899799 0.999690
vt 0.771832 0.999690
vt 0.771832 0.692570
vt 0.899799 0.692570
vt 0.899799 0.719443
vt 0.833195 0.719443
vt 0.828600 0.719805
vt 0.824119 0.720881
vt 0.819861 0.722644
vt 0.815931 0.725053
vt 0.812427 0.728046
vt 0.809433 0.731550
vt 0.807025 0.735480
vt 0.805262 0.739738
vt 0.804186 0.744219
vt 0.803824 0.748814
vt 0.803824 0.751496
vt 0.804186 0.756091
vt 0.805262 0.760572
vt 0.807025 0.764830
vt 0.809433 0.768760
vt 0.812427 0.772265
vt 0.815931 0.775258
vt 0.819861 0.777666
vt 0.824119 0.779430
vt 0.828600 0.780505
vt 0.900419 0.691950
vt 0.900419 0.384830
vt 0.906818 0.384830
vt 0.906818 0.691950
vt 0.654801 0.219133
vt 0.654801 0.347099
vt 0.648403 0.347099
vt 0.648403 0.219133
vt 0.514658 0.860206
vt 0.514658 0.732240
vt 0.521057 0.732240
vt 0.521057 0.860206
vt 0.648403 0.000310
vt 0.654801 0.000310
vt 0.514658 0.705367
vt 0.521057 0.705367
vt 0.648403 0.354118
vt 0.648403 0.347720
vt 0.653012 0.347720
vt 0.653012 0.354118
vt 0.674549 0.382194
vt 0.674549 0.375795
vt 0.679158 0.375795
vt 0.679158 0.382194
vt 0.669460 0.370600
vt 0.669460 0.364201
vt 0.674068 0.364201
vt 0.674068 0.370600
vt 0.669460 0.349543
vt 0.669460 0.343145
vt 0.674068 0.343145
vt 0.674068 0.349543
vt 0.648403 0.368156
vt 0.648403 0.361758
vt 0.653012 0.361758
vt 0.653012 0.368156
vt 0.648403 0.375175
vt 0.648403 0.368777
vt 0.653012 0.368777
vt 0.653012 0.375175
vt 0.669460 0.363581
vt 0.669460 0.357182
vt 0.674068 0.357182
vt 0.674068 0.363581
vt 0.648403 0.382194
vt 0.648403 0.375795
vt 0.653012 0.375795
vt 0.653012 0.382194
vt 0.653632 0.382194
vt 0.653632 0.375795
vt 0.658241 0.375795
vt 0.658241 0.382194
vt 0.648403 0.361137
vt 0.648403 0.354739
vt 0.653012 0.354739
vt 0.653012 0.361137
vt 0.658861 0.375795
vt 0.663470 0.375795
vt 0.663470 0.382194
vt 0.658861 0.382194
vt 0.674689 0.308050
vt 0.679298 0.308050
vt 0.679298 0.314449
vt 0.674689 0.314449
vt 0.674068 0.314449
vt 0.669460 0.314449
vt 0.669460 0.308050
vt 0.674068 0.308050
vt 0.674069 0.328486
vt 0.669460 0.328486
vt 0.669460 0.322088
vt 0.674069 0.322088
vt 0.674068 0.321468
vt 0.669460 0.321468
vt 0.669460 0.315069
vt 0.674068 0.315069
vt 0.673929 0.375795
vt 0.673929 0.382194
vt 0.669320 0.382194
vt 0.669320 0.375795
vt 0.669460 0.335505
vt 0.669460 0.329107
vt 0.674068 0.329107
vt 0.674068 0.335505
vt 0.674068 0.350163
vt 0.674068 0.356562
vt 0.669460 0.356562
vt 0.669460 0.350163
vt 0.664091 0.382194
vt 0.664091 0.375795
vt 0.668700 0.375795
vt 0.668700 0.382194
vt 0.674068 0.336126
vt 0.674068 0.342524
vt 0.669460 0.342524
vt 0.669460 0.336126
vt 0.677371 0.315069
vt 0.677371 0.321468
vt 0.674689 0.321468
vt 0.674689 0.315069
vt 0.668839 0.308050
vt 0.668839 0.374654
vt 0.662441 0.374654
vt 0.662441 0.308050
vt 0.661820 0.374654
vt 0.655422 0.374654
vt 0.655422 0.308050
vt 0.661820 0.308050
s 0
g Cube_Material
usemtl Material
f 3/1/1 9/2/1 11/3/1 1/4/1 18/5/1 25/6/1 27/7/1 19/8/1
f 27/9/1 25/10/1 11/11/1 9/12/1
f 14/13/2 11/14/2 25/15/2 30/16/2
f 30/17/3 25/18/3 18/19/3 21/20/3
f 23/21/4 31/22/4 30/23/4 21/24/4 6/25/4 14/26/4 15/27/4 8/28/4
f 14/26/4 30/23/4 31/22/4 15/27/4
f 6/29/5 1/30/5 11/31/5 14/32/5
f 21/33/6 18/34/6 1/35/6 6/36/6
f 27/37/6 9/38/6 15/39/6 31/40/6
f 23/41/5 19/42/5 27/43/5 31/44/5
f 9/45/3 3/46/3 8/47/3 15/48/3
f 23/49/2 8/50/2 3/51/2 19/52/2
f 2/53/3 5/54/3 7/55/3 44/56/3 45/57/3 43/58/3 46/59/3 42/60/3 41/61/3 47/62/3 38/63/3 39/64/3 40/65/3 36/66/3 37/67/3 48/68/3 32/69/3 33/70/3 34/71/3 28/72/3 29/73/3 35/74/3 22/75/3 24/76/3 26/77/3 20/78/3 17/79/3 4/80/3
f 70/81/5 69/82/5 16/83/5 13/84/5 10/85/5 12/86/5 49/87/5 50/88/5 53/89/5 52/90/5 51/91/5 59/92/5 55/93/5 54/94/5 58/95/5 57/96/5 56/97/5 60/98/5 61/99/5 62/100/5 65/101/5 64/102/5 63/103/5 72/104/5 66/105/5 67/106/5 71/107/5 68/108/5
f 5/109/1 2/110/1 10/111/1 13/112/1
f 7/113/6 5/114/6 13/115/6 16/116/6
f 2/117/2 4/118/2 12/119/2 10/120/2
f 7/113/4 16/116/4 69/121/4 44/122/4
f 12/119/4 4/118/4 17/123/4 49/124/4
f 26/125/7 53/126/7 50/127/7 20/128/7
f 24/129/8 52/130/8 53/131/8 26/132/8
f 22/133/9 51/134/9 52/135/9 24/136/9
f 35/137/10 59/138/10 51/139/10 22/140/10
f 29/141/11 55/142/11 59/143/11 35/144/11
f 28/145/12 54/146/12 55/147/12 29/148/12
f 34/149/13 58/150/13 54/151/13 28/152/13
f 33/153/14 57/154/14 58/155/14 34/156/14
f 32/157/15 56/158/15 57/159/15 33/160/15
f 48/161/16 60/162/16 56/163/16 32/164/16
f 43/165/17 45/166/17 70/167/17 68/168/17
f 46/169/18 43/170/18 68/171/18 71/172/18
f 42/173/19 46/174/19 71/175/19 67/176/19
f 41/177/20 42/178/20 67/179/20 66/180/20
f 47/181/21 41/182/21 66/183/21 72/184/21
f 47/185/22 72/186/22 63/187/22 38/188/22
f 38/189/23 63/190/23 64/191/23 39/192/23
f 39/193/24 64/194/24 65/195/24 40/196/24
f 40/197/25 65/198/25 62/199/25 36/200/25
f 36/201/26 62/202/26 61/203/26 37/204/26
f 60/205/4 48/206/4 37/207/4 61/208/4
f 17/209/6 20/210/6 50/211/6 49/212/6
f 70/213/2 45/214/2 44/215/2 69/216/2
