# Blender 4.5.2 LTS
# www.blender.org
mtllib bin.mtl
o Cube
v 0.700000 0.700000 0.350000
v 0.700000 0.700000 0.070000
v 0.672000 0.672000 0.096899
v 0.700000 -0.700000 0.350000
v 0.700000 -0.700000 0.070000
v 0.672000 -0.672000 0.096899
v -0.700000 0.700000 0.350000
v -0.700000 0.700000 0.070000
v -0.672000 0.672000 0.096899
v -0.700000 -0.700000 0.350000
v -0.700000 -0.700000 0.070000
v -0.672000 -0.672000 0.096899
v -0.672000 -0.672000 0.350000
v 0.672000 0.672000 0.350000
v -0.672000 0.672000 0.350000
v 0.672000 -0.672000 0.350000
vn -0.0000 -0.0000 1.0000
vn -0.0000 -1.0000 -0.0000
vn -1.0000 -0.0000 -0.0000
vn -0.0000 -0.0000 -1.0000
vn 1.0000 -0.0000 -0.0000
vn -0.0000 1.0000 -0.0000
vt 0.875000 0.500000
vt 0.875000 0.750000
vt 0.625000 0.750000
vt 0.630000 0.745000
vt 0.870000 0.745000
vt 0.870000 0.505000
vt 0.625000 0.500000
vt 0.630000 0.505000
vt 0.375000 0.750000
vt 0.625000 1.000000
vt 0.375000 1.000000
vt 0.375000 0.000000
vt 0.625000 0.000000
vt 0.625000 0.250000
vt 0.375000 0.250000
vt 0.125000 0.500000
vt 0.375000 0.500000
vt 0.125000 0.750000
vt 0.600983 1.000000
vt 0.600983 0.750000
vt 0.600983 0.000000
vt 0.600983 0.250000
vt 0.600983 0.500000
s 0
usemtl Material
f 7/1/1 10/2/1 4/3/1 16/4/1 13/5/1 15/6/1
f 4/3/1 1/7/1 7/1/1 15/6/1 14/8/1 16/4/1
f 5/9/2 4/3/2 10/10/2 11/11/2
f 11/12/3 10/13/3 7/14/3 8/15/3
f 8/16/4 2/17/4 5/9/4 11/18/4
f 2/17/5 1/7/5 4/3/5 5/9/5
f 8/15/6 7/14/6 1/7/6 2/17/6
f 6/9/6 12/11/6 13/19/6 16/20/6
f 13/21/5 12/12/5 9/15/5 15/22/5
f 9/16/1 12/18/1 6/9/1 3/17/1
f 3/17/3 6/9/3 16/20/3 14/23/3
f 15/22/2 9/15/2 3/17/2 14/23/2
